<?xml version="1.0" encoding="UTF-8"?>
<svg width="244px" height="50px" viewBox="0 0 244 50" version="1.1" xmlns="http://www.w3.org/2000/svg" xmlns:xlink="http://www.w3.org/1999/xlink">
    <title>GoDaddy</title>
    <g id="GoDaddy" stroke="none" stroke-width="1" fill="none" fill-rule="evenodd">
        <path d="M48.4360097,2.28470914 C42.6003348,-1.36139767 34.9178069,-0.492710343 28.0658868,3.81264685 C21.2353865,-0.492710343 13.5480986,-1.36139767 7.71956363,2.28470914 C-1.50042188,8.04660509 -2.62138553,22.8856886 5.21822012,35.4304856 C10.9967758,44.6790307 20.033504,50.0982117 28.0777867,49.9982531 C36.1220693,50.0982117 45.1587975,44.6790307 50.9373532,35.4304856 C58.767439,22.8856886 57.6559952,8.04660509 48.4360097,2.28470914 Z M9.45693828,32.7815843 C7.84043931,30.2189885 6.62079867,27.4266534 5.83939105,24.4993051 C5.14514397,21.958209 4.87970405,19.3190927 5.05400251,16.690639 C5.40385741,12.0544666 7.29116988,8.44405929 10.366085,6.52342731 C13.4410002,4.60279533 17.5059809,4.48617703 21.8351377,6.20451196 C22.4848682,6.46392818 23.1274589,6.7638038 23.7652896,7.09461898 C21.3595897,9.2881695 19.2677452,11.8028677 17.5488202,14.56771 C12.7888897,22.1835989 11.3371109,30.6586552 12.9983266,37.4153767 C11.6737271,35.9864616 10.4879327,34.4348879 9.45693828,32.7815843 L9.45693828,32.7815843 Z M50.3185622,24.4969251 C49.5361239,27.423913 48.3165491,30.2160974 46.701015,32.7792043 C45.6691405,34.4348582 44.4834285,35.9895115 43.1596267,37.4225166 C44.644725,31.3655049 43.6356197,23.9447732 39.9942728,16.9857547 C39.8766639,16.7539769 39.6663796,16.582864 39.4155346,16.5148229 C39.1646897,16.4467817 38.8967619,16.4881807 38.678152,16.6287599 L27.3257176,23.7210564 C27.11659,23.8515439 26.9679558,24.0598579 26.9125936,24.3000585 C26.8572314,24.5402592 26.8996885,24.7926165 27.0306019,25.0014778 L28.6965776,27.6646589 C28.826614,27.8736265 29.0345069,28.0222143 29.2743203,28.0775902 C29.5141336,28.1329661 29.7661267,28.0905717 29.974619,27.9597746 L37.3334716,23.3616817 C37.5714682,24.0756713 37.8094647,24.7896609 37.9879621,25.5036504 C38.6820814,28.0415348 38.9483192,30.6773687 38.7757306,33.3027967 C38.4258757,37.9365891 36.5385632,41.5469964 33.4636481,43.4700084 C31.8776267,44.4397132 30.0603183,44.9657545 28.2015449,44.9931861 L27.9659283,44.9931861 C26.1070679,44.9663369 24.2896088,44.4402519 22.703825,43.4700084 C19.6265299,41.5469964 17.7392175,37.9365891 17.3893626,33.3027967 C17.2161324,30.6743613 17.4815546,28.0354215 18.1747511,25.4941306 C19.7697609,19.6147214 23.0668659,14.337863 27.6517729,10.3266118 C29.6289643,8.59111933 31.8809777,7.19647958 34.3156757,6.19975203 C38.6329327,4.4814171 42.7050533,4.59565543 45.7823484,6.51866738 C48.8596435,8.44167933 50.744576,12.0497067 51.0944309,16.6858791 C51.2709802,19.3145747 51.0087747,21.9543247 50.3185622,24.4969251 L50.3185622,24.4969251 Z M108.918067,18.9587459 C102.949114,18.9587459 98.1249249,23.6187179 98.1249249,29.5472115 C98.1249249,35.4352456 102.949114,40.0190587 108.918067,40.0190587 C114.92748,40.0190587 119.751669,35.4423855 119.751669,29.5472115 C119.751669,23.6210979 114.93462,18.9611259 108.918067,18.9611259 L108.918067,18.9587459 Z M108.918067,34.4832595 C106.166828,34.4832595 104.072458,32.2579919 104.072458,29.506752 C104.072458,26.7555122 106.166828,24.4969251 108.918067,24.4969251 C111.709767,24.4969251 113.804136,26.7626521 113.804136,29.5138919 C113.804136,32.2651318 111.709767,34.4927793 108.918067,34.4927793 L108.918067,34.4832595 Z M133.210373,10.8262427 L122.226833,10.8262427 C121.987075,10.8218107 121.755812,10.9151957 121.586471,11.0849862 C121.417129,11.2547768 121.324357,11.4862857 121.329586,11.7260314 L121.329586,38.5030208 C121.312301,38.750864 121.399386,38.9946525 121.569789,39.1754509 C121.740191,39.3562492 121.978402,39.4576018 122.226833,39.4550556 L133.210373,39.4550556 C141.999585,39.4550556 148.106576,33.6098122 148.106576,25.1061962 C148.106576,16.550221 141.999585,10.8262427 133.210373,10.8262427 Z M133.469789,33.8002094 L127.460377,33.8002094 L127.460377,16.4669223 L133.469789,16.4669223 C138.334438,16.4669223 141.687809,20.1058892 141.687809,25.0942964 C141.687809,29.9994049 138.334438,33.8002094 133.469789,33.8002094 Z M169.968937,19.5346975 L165.839697,19.5346975 C165.366434,19.5721211 164.997216,19.9598 164.98291,20.4343244 L164.98291,21.6600065 C164.042823,20.1058892 161.917514,18.9611259 159.270993,18.9611259 C154.120748,18.9611259 149.296558,23.0070669 149.296558,29.4686726 C149.296558,35.8945789 154.077909,40.0142988 159.230534,40.0142988 C161.886575,40.0142988 164.054723,38.8719154 164.994809,37.3177981 L164.994809,38.5839396 C164.997397,39.0564424 165.379103,39.4392091 165.851597,39.4431071 L169.980837,39.4431071 C170.210275,39.4483685 170.431878,39.3595399 170.594157,39.1972602 C170.756437,39.0349805 170.845266,38.8133775 170.840004,38.5839396 L170.840004,20.4343244 C170.847074,20.1985822 170.758509,19.9700003 170.59445,19.8005627 C170.430391,19.6311251 170.204784,19.5352342 169.968937,19.5346975 L169.968937,19.5346975 Z M160.363397,34.5284788 C157.628817,34.5284788 155.574907,32.4269694 155.574907,29.511512 C155.574907,26.5960545 157.628817,24.4969251 160.363397,24.4969251 C163.097977,24.4969251 165.151887,26.5936745 165.151887,29.509132 C165.151887,32.4245895 163.100357,34.5260988 160.363397,34.5260988 L160.363397,34.5284788 Z M193.147419,10.8264045 L189.018179,10.8264045 C188.784706,10.819364 188.558187,10.9063861 188.389481,11.0679326 C188.220775,11.2294791 188.124017,11.4520134 188.120932,11.685572 L188.120932,21.5790877 C187.168946,20.1058892 185.012697,18.9611259 182.316197,18.9611259 C177.204031,18.9611259 172.46314,23.0070669 172.46314,29.4686726 C172.46314,35.8945789 177.244491,40.0142988 182.397116,40.0142988 C185.053157,40.0142988 187.057088,38.8719154 188.161391,37.3177981 L188.161391,38.5839396 C188.162691,39.0569778 188.545146,39.4404954 189.018179,39.4431071 L193.147419,39.4431071 C193.377057,39.4490576 193.599064,39.3604506 193.761497,39.1980176 C193.92393,39.0355846 194.012537,38.8135775 194.006586,38.5839396 L194.006586,11.6903319 C194.01387,11.4598803 193.925852,11.2366142 193.763268,11.0731292 C193.600683,10.9096441 193.377907,10.8203943 193.147419,10.8264045 L193.147419,10.8264045 Z M183.541879,34.5784581 C180.819199,34.5784581 178.781948,32.455529 178.781948,29.509132 C178.781948,26.562735 180.826338,24.439806 183.541879,24.439806 C186.257419,24.439806 188.301809,26.562735 188.301809,29.509132 C188.301809,32.455529 186.266939,34.5784581 183.541879,34.5784581 Z M216.321141,10.8264045 L212.199041,10.8264045 C211.965343,10.8193673 211.73858,10.9063168 211.569498,11.0677949 C211.400415,11.2292731 211.30313,11.4517981 211.299414,11.685572 L211.299414,21.5790877 C210.359328,20.1058892 208.191179,18.9611259 205.494679,18.9611259 C200.382513,18.9611259 195.641622,23.0070669 195.641622,29.4686726 C195.641622,35.8945789 200.425353,40.0142988 205.575597,40.0142988 C208.234019,40.0142988 210.235569,38.8719154 211.339873,37.3177981 L211.339873,38.5839396 C211.342475,39.0573631 211.725617,39.4405058 212.199041,39.4431071 L216.321141,39.4431071 C216.550572,39.4490874 216.772358,39.3604099 216.934421,39.1978973 C217.096483,39.0353848 217.184545,38.8133536 217.177928,38.5839396 L217.177928,11.6903319 C217.185883,11.4601055 217.098413,11.2368129 216.936199,11.0732466 C216.773984,10.9096803 216.551425,10.8203604 216.321141,10.8264045 L216.321141,10.8264045 Z M206.715601,34.5784581 C203.990541,34.5784581 201.95567,32.455529 201.95567,29.509132 C201.95567,26.562735 204.00006,24.439806 206.715601,24.439806 C209.431141,24.439806 211.475531,26.562735 211.475531,29.509132 C211.475531,32.455529 209.445421,34.5784581 206.722741,34.5784581 L206.715601,34.5784581 Z M238.930811,20.9269772 L232.769081,42.0586889 C231.579098,45.8190341 228.925437,48.0681013 224.796197,48.0681013 C222.918404,48.0681013 221.209589,47.6849269 219.869669,46.9185781 C219.08904,46.4735245 218.44169,46.0665505 218.44169,45.41444 C218.44169,45.0098459 218.572588,44.800409 218.810584,44.4219945 L220.033887,42.5894212 C220.378982,42.0777287 220.633638,41.9111311 221.004912,41.9111311 C221.299121,41.9183624 221.58371,42.0173858 221.818861,42.194347 C222.587589,42.6917597 223.301579,43.1201535 224.389223,43.1201535 C225.660124,43.1201535 226.63115,42.7131794 227.154743,41.1995215 L227.683095,39.4454871 L225.188891,39.4454871 C224.661931,39.4623672 224.197786,39.1012551 224.084587,38.5863196 L218.570208,20.9269772 C218.365531,20.2320273 218.553548,19.5370701 219.574553,19.5370701 L223.91799,19.5370701 C224.448722,19.5370701 224.819997,19.7179548 225.053233,20.4771638 L229.125354,34.6974563 L232.933298,20.4771638 C233.054677,19.9868909 233.383112,19.5370701 234.037602,19.5370701 L238.157322,19.5370701 C238.96889,19.5346975 239.214027,20.1058892 238.930811,20.9269772 Z M96.5685405,27.2124655 L96.5685405,38.5006409 C96.5723229,38.7492473 96.475282,38.9888159 96.2994691,39.1646288 C96.1236562,39.3404417 95.8840876,39.4374826 95.6354812,39.4335872 L92.2273709,39.4335872 C91.9785663,39.4381536 91.7386054,39.3413284 91.5626444,39.1653674 C91.3866833,38.9894064 91.2898581,38.7494454 91.2944245,38.5006409 L91.2944245,35.5375841 C89.1310361,38.2697842 85.3683109,39.9904991 81.112933,39.9904991 C73.1210096,39.9904991 66.8759807,33.9787068 66.8759807,25.4203517 C66.8759807,16.5264214 73.6184223,10.3956308 82.1363181,10.3956308 C88.4241864,10.3956308 93.450673,13.0992714 95.6830805,18.5374921 C95.7456069,18.6811899 95.7803325,18.8354361 95.785419,18.9920654 C95.785419,19.2491017 95.6164415,19.4442588 95.0714294,19.6322761 L91.0921275,21.1649737 C90.8520863,21.2645005 90.5831282,21.2687562 90.3400584,21.1768736 C90.1269704,21.0510481 89.960068,20.8599449 89.8640654,20.6318615 C88.4360862,17.9163211 85.8942833,16.071848 81.9816204,16.071848 C76.9075344,16.071848 73.2733274,20.0344902 73.2733274,25.1728353 C73.2733274,30.1541026 76.3672822,34.2500229 82.1267982,34.2500229 C85.156494,34.2500229 87.5721588,32.8220437 88.6978824,31.2536466 L85.1041348,31.2536466 C84.8555283,31.2575419 84.6159598,31.160501 84.4401469,30.9846881 C84.264334,30.8088752 84.1672931,30.5693066 84.1711884,30.3207002 L84.1711884,27.2529249 C84.1672931,27.0043185 84.264334,26.7647499 84.4401469,26.588937 C84.6159598,26.4131241 84.8555283,26.3160832 85.1041348,26.3199785 L95.6354812,26.3199785 C95.8794826,26.3075279 96.1178292,26.39619 96.2943744,26.5650789 C96.4709197,26.7339679 96.570055,26.9681521 96.5685405,27.2124655 L96.5685405,27.2124655 Z M239.042669,15.3554785 L239.042669,15.0817825 C239.042404,15.0625891 239.049177,15.0439632 239.061709,15.0294232 C239.075519,15.0172433 239.093275,15.0104793 239.111688,15.0103835 L240.851443,15.0103835 C240.869984,15.009755 240.887998,15.0166174 240.901422,15.0294232 C240.913954,15.0439632 240.920727,15.0625891 240.920469,15.0817825 L240.920469,15.3554785 C240.920345,15.3738881 240.913583,15.3916363 240.901422,15.4054577 C240.887998,15.4182636 240.869984,15.425126 240.851443,15.4244975 L240.215992,15.4244975 L240.215992,17.1404524 C240.214756,17.1793615 240.183502,17.2106153 240.144593,17.2118514 L239.816158,17.2118514 C239.797976,17.2117673 239.78068,17.2039843 239.768559,17.1904317 C239.754881,17.1774049 239.747139,17.1593413 239.747139,17.1404524 L239.747139,15.4244975 L239.111688,15.4244975 C239.092977,15.4259434 239.074569,15.4191375 239.061299,15.4058674 C239.048029,15.3925974 239.041223,15.3741894 239.042669,15.3554785 L239.042669,15.3554785 Z M242.084265,15.0722626 L242.560258,16.1741865 L243.036251,15.0722626 C243.043535,15.0527369 243.05688,15.0360562 243.07433,15.0246633 C243.094147,15.0144055 243.116293,15.0094842 243.13859,15.0103835 L243.690741,15.0103835 C243.709014,15.0090116 243.727004,15.0155062 243.740186,15.0282342 C243.753369,15.0409622 243.760491,15.0587127 243.75976,15.0770225 L243.75976,17.1428324 C243.761132,17.1611053 243.754638,17.1790948 243.74191,17.1922774 C243.729182,17.2054599 243.711431,17.2125815 243.693121,17.2118514 L243.383726,17.2118514 C243.365184,17.21248 243.34717,17.2056175 243.333747,17.1928117 C243.320156,17.1798965 243.313154,17.1615163 243.314707,17.1428324 L243.314707,15.5839551 L242.803014,16.7168186 C242.795569,16.7382053 242.782397,16.757139 242.764935,16.7715578 C242.745336,16.7824025 242.723023,16.7873607 242.700676,16.7858376 L242.4484,16.7858376 C242.426838,16.7870217 242.405383,16.7820704 242.38652,16.7715578 C242.368338,16.7578169 242.355001,16.738645 242.348441,16.7168186 L241.839128,15.5839551 L241.839128,17.1428324 C241.840198,17.1610282 241.833603,17.1788411 241.820943,17.1919538 C241.808282,17.2050664 241.790712,17.2122819 241.772489,17.2118514 L241.455954,17.2118514 C241.438144,17.2116219 241.421204,17.2041176 241.409067,17.1910818 C241.39693,17.1780459 241.390653,17.160613 241.391695,17.1428324 L241.391695,15.0770225 C241.390965,15.0587127 241.398086,15.0409622 241.411269,15.0282342 C241.424452,15.0155062 241.442441,15.0090116 241.460714,15.0103835 L241.996206,15.0103835 C242.017713,15.0097883 242.039014,15.014704 242.058085,15.0246633 C242.071141,15.0377318 242.08022,15.054238 242.084265,15.0722626 L242.084265,15.0722626 Z" fill="#000000" fill-rule="nonzero"></path>
    </g>
</svg>
