<?xml version="1.0" encoding="UTF-8"?>
<svg width="152px" height="50px" viewBox="0 0 152 50" version="1.1" xmlns="http://www.w3.org/2000/svg" xmlns:xlink="http://www.w3.org/1999/xlink">
    <title>Google</title>
    <g id="Google" stroke="none" stroke-width="1" fill="none" fill-rule="evenodd">
        <path d="M105.971158,13.8181613 C108.951104,13.8181613 111.317035,15.1419558 112.550699,16.6122127 L112.742226,16.6122127 L112.742226,14.578639 L117.952907,14.578639 L117.952907,37.0042812 C117.952907,46.2314105 112.511266,50 106.078188,50 C100.022533,50 96.3778729,45.9497521 95.0033799,42.6374493 L99.7803064,40.648941 C100.630915,42.6825146 102.715187,45.0822443 106.072555,45.0822443 C110.190401,45.0822443 112.742226,42.5416854 112.742226,37.7591257 L112.742226,35.9621451 L112.550699,35.9621451 C111.322668,37.4774673 108.956737,38.8012618 105.971158,38.8012618 C99.7239748,38.8012618 94.000676,33.3596215 94.000676,26.3575935 C94.000676,19.3048671 99.7239748,13.8181613 105.971158,13.8181613 Z M52.4673276,13.8181613 C59.3735917,13.8181613 65.0011266,19.068274 65.0011266,26.3125282 C65.0011266,33.5060838 59.3735917,38.806895 52.4673276,38.806895 C45.5610635,38.806895 39.9335286,33.5060838 39.9335286,26.3125282 C39.9335286,19.068274 45.5610635,13.8181613 52.4673276,13.8181613 Z M79.5065345,13.8181613 C86.4127986,13.8181613 92.0403335,19.068274 92.0403335,26.3125282 C92.0403335,33.5060838 86.4127986,38.806895 79.5065345,38.806895 C72.6002704,38.806895 66.9727355,33.5060838 66.9727355,26.3125282 C66.9727355,19.0739072 72.6002704,13.8181613 79.5065345,13.8181613 Z M140.632041,13.8125282 C147.115818,13.8125282 150.287292,18.9725101 151.323795,21.7609283 L151.892744,23.1804867 L135.190401,30.0980171 C136.46913,32.6047769 138.457639,33.8835061 141.246057,33.8835061 C144.040108,33.8835061 145.977918,32.5090131 147.397476,30.4247409 L151.656151,33.2638576 C150.281658,35.2974313 146.969356,38.8012618 141.246057,38.8012618 C134.148265,38.8012618 128.847454,33.3145561 128.847454,26.306895 C128.847454,18.8767463 134.19333,13.8125282 140.632041,13.8125282 Z M19.6822893,1.13686838e-13 C25.5971158,1.13686838e-13 29.8107256,2.32086525 32.976566,5.34587652 L29.2361424,9.08630014 C26.9659757,6.9569626 23.8902659,5.30081118 19.6766562,5.30081118 C11.8690852,5.30081118 5.76273096,11.5930599 5.76273096,19.4006309 C5.76273096,27.2082019 11.8690852,33.5004507 19.6766562,33.5004507 C24.7408743,33.5004507 27.6250563,31.466877 29.4727355,29.6191978 C30.9711582,28.1207751 31.9569626,25.9801712 32.3456512,23.056557 L19.6766562,23.0621902 L19.6766562,17.761379 L37.5394322,17.761379 C37.7140604,18.6852186 37.8041911,19.7780532 37.8041911,20.9610185 C37.8041911,24.9380352 36.7169896,29.8557909 33.2131591,33.3596215 C29.8050924,36.9085174 25.4506534,38.8012618 19.6822893,38.8012618 C8.99053628,38.8012618 2.84217094e-14,30.092384 2.84217094e-14,19.4006309 C2.84217094e-14,8.70887787 8.99053628,1.13686838e-13 19.6822893,1.13686838e-13 Z M126.543488,1.42519153 L126.543488,38.0407841 L121.191978,38.0407841 L121.191978,1.42519153 L126.543488,1.42519153 Z M52.4673276,18.7415502 C48.6818387,18.7415502 45.4202343,21.81726 45.4202343,26.3125282 C45.4202343,30.762731 48.6818387,33.8835061 52.4673276,33.8835061 C56.2528166,33.8835061 59.5144209,30.7570978 59.5144209,26.3125282 C59.5144209,21.81726 56.2528166,18.7415502 52.4673276,18.7415502 Z M79.5065345,18.7415502 C75.7210455,18.7415502 72.4594412,21.81726 72.4594412,26.3125282 C72.4594412,30.762731 75.7210455,33.8835061 79.5065345,33.8835061 C83.2920234,33.8835061 86.5536278,30.7570978 86.5536278,26.3125282 C86.5536278,21.81726 83.2920234,18.7415502 79.5065345,18.7415502 Z M106.461244,18.7415502 C102.675755,18.7415502 99.5042812,21.9580892 99.5042812,26.3575935 C99.5042812,30.7120324 102.675755,33.8835061 106.461244,33.8835061 C110.196034,33.8835061 113.130915,30.7120324 113.130915,26.3575935 C113.130915,21.9580892 110.196034,18.7415502 106.461244,18.7415502 Z M140.817936,18.6457864 C138.029518,18.6457864 134.148265,21.1074808 134.289094,25.9294727 L145.454033,21.2933754 C144.840018,19.7329878 142.992339,18.6457864 140.817936,18.6457864 Z" fill="#000000" fill-rule="nonzero"></path>
    </g>
</svg>