<?xml version="1.0" encoding="UTF-8"?>
<svg width="21px" height="21px" viewBox="0 0 21 21" version="1.1" xmlns="http://www.w3.org/2000/svg" xmlns:xlink="http://www.w3.org/1999/xlink">
    <title>linkedin_dark</title>
    <g id="Page-1" stroke="none" stroke-width="1" fill="none" fill-rule="evenodd">
        <path d="M19.2885521,0.783435681 C20.0996533,0.783435681 20.7571982,1.4248125 20.7571982,2.21611116 L20.7571982,19.3507602 C20.7571982,20.1417916 20.0996533,20.7834357 19.2885521,20.7834357 L2.35192817,20.7834357 C1.54080028,20.7834357 0.883282145,20.1417916 0.883282145,19.3507602 L0.883282145,2.21611116 C0.883282145,1.4248125 1.54080028,0.783435681 2.35192817,0.783435681 L19.2885521,0.783435681 Z M5.40677925,14.3055298 L5.38721726,14.3055298 C4.37985479,14.3055298 3.72845645,14.9990185 3.72845645,15.8656789 C3.72845645,16.7518479 4.39981764,17.4260953 5.42663521,17.4260953 C6.45355967,17.4260953 7.08558308,16.7518479 7.10509163,15.8656789 C7.10509163,14.9990185 6.45355967,14.3055298 5.40677925,14.3055298 Z M11.5704105,4.0413627 L8.56866009,4.0413627 L8.56913089,4.14148102 C8.57155426,4.66396519 8.58262001,7.13862339 8.58551054,9.36125324 L8.58553608,11.1870441 C8.58388157,12.1310956 8.57895698,12.851417 8.56866009,13.0724828 L11.5704907,13.0724828 L11.5702821,11.7934357 L11.6090867,11.8526472 C11.9948894,12.4328747 12.6624089,13.2028308 14.0504887,13.2783759 L14.2757112,13.2844044 C16.2506441,13.2844044 17.7315564,11.9936336 17.7315564,9.21967882 L17.7315564,4.0413627 L14.7300465,4.0413627 L14.7300465,8.87280085 C14.7300465,10.0868737 14.2955405,10.9150515 13.2093421,10.9150515 C12.3800953,10.9150515 11.8861817,10.3565192 11.6691825,9.81722822 C11.5899191,9.62428069 11.5704105,9.35463519 11.5704105,9.08472244 L11.5704105,4.0413627 Z M6.90768119,4.0413627 L3.90590404,4.0413627 L3.90590404,13.0724828 L6.90768119,13.0724828 L6.90768119,4.0413627 Z" id="linkedin_dark" fill="#FFFFFF" fill-rule="nonzero" transform="translate(10.820240, 10.783436) scale(1, -1) translate(-10.820240, -10.783436) "></path>
    </g>
</svg>