<?xml version="1.0" encoding="UTF-8"?>
<svg width="19px" height="20px" viewBox="0 0 19 20" version="1.1" xmlns="http://www.w3.org/2000/svg" xmlns:xlink="http://www.w3.org/1999/xlink">
    <title>mastodon_light</title>
    <g id="Page-1" stroke="none" stroke-width="1" fill="none" fill-rule="evenodd">
        <path d="M9.3611179,0 C11.9180146,0.0209042927 14.3791179,0.29772454 15.812355,0.955994254 C15.812355,0.955994254 18.6549078,2.22770798 18.6549078,6.56631851 L18.6549466,6.57012633 C18.6550814,6.58402705 18.6556163,6.635649 18.6556163,6.71942903 L18.6556163,6.76828303 C18.6550832,7.50461469 18.6257604,10.1007334 18.2584806,11.9897972 C17.9842464,13.4006214 15.8023339,14.9446297 13.2964049,15.2438628 C11.9896711,15.399783 10.7030873,15.5430959 9.33116227,15.4801675 C7.08750668,15.3773701 5.31710705,14.9446297 5.31710705,14.9446297 C5.31710705,15.1630473 5.33057631,15.3710127 5.35751483,15.5655088 C5.64045443,17.7133203 7.44032867,17.9025606 9.19405407,17.9684316 L9.30245942,17.9723648 C9.32051263,17.9729995 9.33855747,17.9736251 9.35659223,17.9742436 C11.176882,18.0365255 12.797719,17.5254479 12.797719,17.5254479 L12.8725003,19.1710683 C12.8725003,19.1710683 11.599278,19.8547679 9.33116227,19.980517 C8.08046059,20.0492641 6.5275087,19.9490528 4.7187486,19.4703014 C0.795853339,18.431983 0.121205005,14.2503702 0.01797659,10.0074453 C-0.0134876032,8.74769223 0.00590813233,7.55981119 0.00590813233,6.56631851 C0.00590813233,2.22770798 2.84856868,0.955994254 2.84856868,0.955994254 C4.28191354,0.29772454 6.74140056,0.0209042927 9.29829727,0 L9.3611179,0 Z M12.2511903,3.39000821 C11.1860411,3.39000821 10.3795018,3.79936598 9.84633455,4.61818928 L9.32782189,5.48722599 L8.80941698,4.61818928 C8.27614201,3.79936598 7.46960267,3.39000821 6.40456128,3.39000821 C5.48401812,3.39000821 4.7424545,3.71359373 4.17620678,4.34481717 C3.62709196,4.9760406 3.35371984,5.82923746 3.35371984,6.90289917 L3.35371984,12.1562341 L5.43499002,12.1562341 L5.43499002,7.05731078 C5.43499002,5.98246377 5.88723392,5.43690483 6.79182947,5.43690483 C7.7920029,5.43690483 8.29338266,6.08407587 8.29338266,7.3637634 L8.29338266,10.154702 L10.3623689,10.154702 L10.3623689,7.3637634 C10.3623689,6.08407587 10.8636409,5.43690483 11.8638143,5.43690483 C12.7684099,5.43690483 13.2206538,5.98246377 13.2206538,7.05731078 L13.2206538,12.1562341 L15.3019239,12.1562341 L15.3019239,6.90289917 C15.3019239,5.82923746 15.0285518,4.9760406 14.4795448,4.34481717 C13.9131893,3.71359373 13.1716257,3.39000821 12.2511903,3.39000821 Z" id="mastodon_light" fill="#FFFFFF" fill-rule="nonzero"></path>
    </g>
</svg>