<?xml version="1.0" encoding="UTF-8"?>
<svg width="24px" height="24px" viewBox="0 0 24 24" version="1.1" xmlns="http://www.w3.org/2000/svg" xmlns:xlink="http://www.w3.org/1999/xlink">
    <!-- Generator: Sketch 49.3 (51167) - http://www.bohemiancoding.com/sketch -->
    <title>Shape</title>
    <desc>Created with Sketch.</desc>
    <defs></defs>
    <g id="Page-1" stroke="none" stroke-width="1" fill="none" fill-rule="evenodd">
        <path d="M24,24 L0,24 L0,0 L24,0 L24,24 Z M19.97,18.351 L19.97,18.082 L18.723,16.858 C18.613,16.774 18.558,16.636 18.581,16.499 L18.581,7.501 C18.558,7.364 18.613,7.226 18.723,7.142 L20,5.918 L20,5.649 L15.578,5.649 L12.426,13.512 L8.84,5.649 L4.202,5.649 L4.202,5.918 L5.696,7.717 C5.842,7.85 5.917,8.044 5.897,8.24 L5.897,15.312 C5.941,15.567 5.86,15.828 5.681,16.014 L4,18.052 L4,18.321 L8.766,18.321 L8.766,18.052 L7.085,16.014 C6.904,15.828 6.819,15.569 6.853,15.312 L6.853,9.196 L11.036,18.321 L11.522,18.321 L15.115,9.196 L15.115,16.469 C15.115,16.663 15.115,16.701 14.988,16.828 L13.696,18.082 L13.696,18.351 L19.97,18.351 Z" id="Shape" fill="#5F7C88"></path>
    </g>
</svg>