<svg xmlns="http://www.w3.org/2000/svg" width="24" height="24" viewBox="0 0 24 24"><path fill="#FFFFFF" d="M2.846,6.387 C2.876,6.092 2.763,5.801 2.543,5.603 L0.303,2.903 L0.303,2.5 L7.261,2.5 L12.639,14.295 L17.367,2.5 L24,2.5 L24,2.903 L22.084,4.74 C21.919,4.866 21.837,5.073 21.871,5.278 L21.871,18.776 C21.837,18.98 21.919,19.187 22.084,19.313 L23.955,21.15 L23.955,21.553 L14.543,21.553 L14.543,21.15 L16.482,19.268 C16.672,19.078 16.672,19.022 16.672,18.731 L16.672,7.821 L11.283,21.509 L10.555,21.509 L4.28,7.821 L4.28,16.995 C4.228,17.38 4.356,17.769 4.627,18.047 L7.148,21.105 L7.148,21.509 L-6.21724894e-15,21.509 L-6.21724894e-15,21.105 L2.521,18.047 C2.791,17.768 2.911,17.377 2.846,16.995 L2.846,6.387 Z"></path></svg>