<svg xmlns="http://www.w3.org/2000/svg" width="24" height="24" viewBox="0 0 24 24"><path fill="#212121" d="M10.0249061,13.875 L4.6875,13.875 C2.09866522,13.875 0,11.7763348 0,9.1875 C0,6.59866523 2.09866522,4.5 4.6875,4.5 L10.9144737,4.5 C11.9500076,4.5 12.7894737,5.33946607 12.7894737,6.375 C12.7894737,7.41053393 11.9500076,8.25 10.9144737,8.25 L4.59163537,8.25 C4.07386837,8.25 3.65413537,8.66973307 3.65413537,9.1875 C3.65413537,9.70526693 4.07386837,10.125 4.59163537,10.125 L9.92904135,10.125 C12.5178761,10.125 14.6165414,12.2236652 14.6165414,14.8125 C14.6165414,17.4013348 12.5178761,19.5 9.92904135,19.5 L1.875,19.5 C0.839466075,19.5 0,18.6605339 0,17.625 C0,16.5894661 0.839466075,15.75 1.875,15.75 L10.0249061,15.75 C10.542673,15.75 10.9624061,15.3302669 10.9624061,14.8125 C10.9624061,14.2947331 10.542673,13.875 10.0249061,13.875 Z M13.9700281,19.5 C15.2168466,18.6567813 16.1079801,17.3126221 16.3657162,15.75 L19.3915718,15.75 C19.9006047,15.75 20.3132575,15.3302669 20.3132575,14.8125 L20.3132575,9.1875 C20.3132575,8.66973307 19.9006047,8.25 19.3915718,8.25 L13.8947369,8.25 C14.3325743,7.7524158 14.5988065,7.09533225 14.5988065,6.375 C14.5988065,5.65466775 14.3325743,4.9975842 13.8947369,4.5 L20.3132575,4.5 C22.3493891,4.5 24,6.17893222 24,8.25 L24,15.75 C24,17.8210678 22.3493891,19.5 20.3132575,19.5 L13.9700281,19.5 Z"></path></svg>