<?xml version="1.0" encoding="UTF-8"?>
<svg width="133px" height="50px" viewBox="0 0 133 50" version="1.1" xmlns="http://www.w3.org/2000/svg" xmlns:xlink="http://www.w3.org/1999/xlink">
    <title>logo-url</title>
    <g id="Page-1" stroke="none" stroke-width="1" fill="none" fill-rule="evenodd">
        <g id="logo-url" fill="#000000" fill-rule="nonzero">
            <g id="www.thrif.store" transform="translate(7.182320, 37.569061)">
                <polygon id="w" points="9.61203122 10.9777449 9.26058584 10.9602366 11.3165413 3.50167302 12.8453287 3.50167302 10.1567716 12.2558556 8.83885138 12.2558556 6.23815555 4.58719166 6.58960093 4.58719166 3.9889051 12.2558556 2.67098491 12.2558556 0 3.50167302 1.52878742 3.50167302 3.54959837 10.9602366 3.19815298 10.9777449 5.57040932 3.50167302 7.27491943 3.50167302"></polygon>
                <polygon id="w" points="23.1602507 10.9777449 22.8088054 10.9602366 24.8647608 3.50167302 26.3935483 3.50167302 23.7049911 12.2558556 22.3870709 12.2558556 19.7863751 4.58719166 20.1378204 4.58719166 17.5371246 12.2558556 16.2192044 12.2558556 13.5482195 3.50167302 15.0770069 3.50167302 17.0978179 10.9602366 16.7463725 10.9777449 19.1186288 3.50167302 20.8231389 3.50167302"></polygon>
                <polygon id="w" points="36.7084702 10.9777449 36.3570249 10.9602366 38.4129804 3.50167302 39.9417678 3.50167302 37.2532106 12.2558556 35.9352904 12.2558556 33.3345946 4.58719166 33.68604 4.58719166 31.0853441 12.2558556 29.7674239 12.2558556 27.096439 3.50167302 28.6252264 3.50167302 30.6460374 10.9602366 30.294592 10.9777449 32.6668483 3.50167302 34.3713585 3.50167302"></polygon>
                <polygon id="." points="41.8571451 10.5400358 41.8571451 12.2558556 40.0296291 12.2558556 40.0296291 10.5400358"></polygon>
                <path d="M42.8236199,3.50167302 L47.989867,3.50167302 L47.989867,4.8148004 L42.8236199,4.8148004 L42.8236199,3.50167302 Z M44.7038527,1.22558556 L46.1096342,1.22558556 L46.1096342,12.2558556 L44.7038527,12.2558556 L44.7038527,1.22558556 Z" id="t"></path>
                <path d="M55.9149604,12.2558556 L55.9149604,6.75822893 C55.9149604,6.30301144 55.8446713,5.92658159 55.7040932,5.62893938 C55.563515,5.33129718 55.3526478,5.10660649 55.0714915,4.95486733 C54.7903352,4.80312816 54.4388898,4.72725858 54.0171554,4.72725858 C53.5368467,4.72725858 53.0916825,4.84981713 52.6816629,5.09493425 C52.2716433,5.34005136 51.9348415,5.67562836 51.6712574,6.10166524 C51.4076734,6.52770212 51.2465943,7.02085441 51.18802,7.58112209 L51.1704478,6.56563692 C51.229022,6.07540269 51.3490992,5.63185744 51.5306793,5.23500117 C51.7122594,4.83814489 51.9406989,4.49673177 52.2159978,4.21076181 C52.4912967,3.92479184 52.8075975,3.70593728 53.1649003,3.55419812 C53.5222031,3.40245895 53.9000069,3.32658937 54.2983117,3.32658937 C54.7669055,3.32658937 55.18864,3.39662283 55.563515,3.53668975 C55.9383901,3.67675667 56.254691,3.88102093 56.5124176,4.14948253 C56.7701442,4.41794413 56.9692966,4.74184888 57.1098747,5.12119679 C57.2504529,5.5005447 57.320742,5.92949965 57.320742,6.40806163 L57.320742,12.2558556 L55.9149604,12.2558556 Z M49.8700998,12.2558556 L49.8700998,0 L51.2758814,0 L51.2758814,12.2558556 L49.8700998,12.2558556 Z" id="h"></path>
                <path d="M59.6051369,3.50167302 L61.0109185,3.50167302 L61.0109185,12.2558556 L59.6051369,12.2558556 L59.6051369,3.50167302 Z M63.8224815,4.8148004 C63.2250244,4.8148004 62.7242147,4.96362151 62.3200525,5.26126371 C61.9158903,5.55890592 61.5995895,5.92074547 61.37115,6.34678235 C61.1427105,6.77281924 60.9933462,7.18426582 60.9230571,7.58112209 L60.9054849,6.56563692 C60.9054849,6.46058672 60.9289146,6.28550307 60.9757739,6.04038596 C61.0226333,5.79526885 61.1104947,5.51805307 61.239358,5.20873862 C61.3682213,4.89942417 61.5410153,4.60178196 61.7577399,4.315812 C61.9744646,4.02984204 62.2526922,3.79347911 62.5924227,3.60672321 C62.9321532,3.41996732 63.3421729,3.32658937 63.8224815,3.32658937 L63.8224815,4.8148004 Z" id="r"></path>
                <path d="M67.1436404,0 L67.1436404,1.69831142 L65.3161244,1.69831142 L65.3161244,0 L67.1436404,0 Z M65.5269916,3.50167302 L66.9327732,3.50167302 L66.9327732,12.2558556 L65.5269916,12.2558556 L65.5269916,3.50167302 Z" id="i"></path>
                <path d="M68.7251446,3.50167302 L73.8913918,3.50167302 L73.8913918,4.8148004 L68.7251446,4.8148004 L68.7251446,3.50167302 Z M73.2763623,0 L74.0846867,0 L74.0846867,1.40066921 L73.2763623,1.40066921 C72.9834912,1.38899697 72.7169784,1.42984982 72.4768241,1.52322776 C72.2366698,1.61660571 72.0463035,1.77709906 71.9057253,2.0047078 C71.7651472,2.23231655 71.6948581,2.55622131 71.6948581,2.97642207 L71.6948581,12.2558556 L70.2890766,12.2558556 L70.2890766,2.97642207 C70.2890766,2.27608746 70.4150112,1.7070656 70.6668804,1.26935647 C70.9187496,0.831647343 71.2701949,0.510660649 71.7212165,0.306396389 C72.1722381,0.10213213 72.69062,0 73.2763623,0 Z" id="f"></path>
                <polygon id="." points="76.386654 10.5400358 76.386654 12.2558556 74.559138 12.2558556 74.559138 10.5400358"></polygon>
                <path d="M78.2493145,9.43700879 L79.5496624,9.43700879 C79.584807,9.93891526 79.7751732,10.3474438 80.1207612,10.6625944 C80.4663491,10.9777449 80.9671588,11.1353202 81.6231902,11.1353202 C82.021495,11.1353202 82.3348671,11.0827951 82.5633066,10.9777449 C82.7917461,10.8726947 82.9586826,10.7297098 83.0641163,10.54879 C83.1695499,10.3678702 83.2222667,10.166524 83.2222667,9.94475138 C83.2222667,9.67628978 83.1549063,9.46327134 83.0201856,9.30569605 C82.8854649,9.14812077 82.7038847,9.01680803 82.4754452,8.91175784 C82.2470057,8.80670765 81.9863504,8.70749358 81.6934793,8.61411563 C81.3537487,8.48572096 81.0052321,8.3485721 80.6479292,8.20266905 C80.2906264,8.05676601 79.9567533,7.88168236 79.6463099,7.6774181 C79.3358665,7.47315384 79.086926,7.22220061 78.8994885,6.9245584 C78.7120509,6.62691619 78.6183322,6.26799471 78.6183322,5.84779395 C78.6183322,5.49762664 78.6886212,5.16788577 78.8291994,4.85857132 C78.9697775,4.54925687 79.1718586,4.28079527 79.4354427,4.05318652 C79.6990267,3.82557778 80.0094701,3.64757606 80.3667729,3.51918139 C80.7240757,3.39078671 81.1194518,3.32658937 81.5529011,3.32658937 C82.1386434,3.32658937 82.6335957,3.4433118 83.0377579,3.67675667 C83.44192,3.91020154 83.7523635,4.23994242 83.9690881,4.6659793 C84.1858128,5.09201619 84.3000325,5.58516847 84.3117474,6.14543615 L83.0992608,6.14543615 C83.0172569,5.6201852 82.8503203,5.23791923 82.5984511,4.99863824 C82.3465819,4.75935725 81.9863504,4.63971675 81.5177566,4.63971675 C81.0374479,4.63971675 80.6684302,4.74476694 80.4107036,4.95486733 C80.152977,5.16496771 80.0241137,5.44510155 80.0241137,5.79526885 C80.0241137,6.05205821 80.1178325,6.26507665 80.30527,6.43432418 C80.4927075,6.60357171 80.7357906,6.75531087 81.0345192,6.88954167 C81.3332477,7.02377247 81.6524773,7.16092133 81.9922078,7.30098825 C82.3319384,7.44105517 82.6599541,7.58112209 82.9762549,7.72118901 C83.2925558,7.86125593 83.5737121,8.02466734 83.8197238,8.21142324 C84.0657356,8.39817913 84.2619593,8.62870594 84.4083948,8.90300366 C84.5548304,9.17730138 84.6280482,9.5187145 84.6280482,9.92724302 C84.6280482,10.4174772 84.5138285,10.8522683 84.285389,11.2316162 C84.0569495,11.6109641 83.7230763,11.9056883 83.2837696,12.1157887 C82.8444629,12.325889 82.3085087,12.4309392 81.675907,12.4309392 C81.1018795,12.4309392 80.6127847,12.3579877 80.2086225,12.2120847 C79.8044603,12.0661816 79.4676585,11.8735896 79.198217,11.6343086 C78.9287756,11.3950276 78.7208371,11.1411563 78.5744015,10.8726947 C78.4279659,10.6042331 78.3313184,10.3416077 78.284459,10.0848183 C78.2375997,9.82802895 78.2258848,9.61209244 78.2493145,9.43700879 Z" id="s"></path>
                <path d="M85.8053902,3.50167302 L90.9716374,3.50167302 L90.9716374,4.8148004 L85.8053902,4.8148004 L85.8053902,3.50167302 Z M87.685623,1.22558556 L89.0914046,1.22558556 L89.0914046,12.2558556 L87.685623,12.2558556 L87.685623,1.22558556 Z" id="t"></path>
                <path d="M96.2784627,12.4309392 C95.5287125,12.4309392 94.8258217,12.2500195 94.1697904,11.8881799 C93.513759,11.5263404 92.9836622,11.0040075 92.5795,10.3211812 C92.1753378,9.63835499 91.9732567,8.83005214 91.9732567,7.89627266 C91.9732567,6.96249319 92.1753378,6.15419034 92.5795,5.4713641 C92.9836622,4.78853786 93.513759,4.26036884 94.1697904,3.88685705 C94.8258217,3.51334526 95.5287125,3.32658937 96.2784627,3.32658937 C97.0282128,3.32658937 97.7281749,3.51334526 98.3783488,3.88685705 C99.0285228,4.26036884 99.5527621,4.78853786 99.9510669,5.4713641 C100.349372,6.15419034 100.548524,6.96249319 100.548524,7.89627266 C100.548524,8.83005214 100.349372,9.63835499 99.9510669,10.3211812 C99.5527621,11.0040075 99.0285228,11.5263404 98.3783488,11.8881799 C97.7281749,12.2500195 97.0282128,12.4309392 96.2784627,12.4309392 Z M96.2784627,11.1178118 C96.7704862,11.1178118 97.2332226,10.9952533 97.6666719,10.7501362 C98.1001212,10.5050191 98.4544953,10.1402615 98.7297942,9.65586336 C99.0050931,9.17146526 99.1427425,8.58493502 99.1427425,7.89627266 C99.1427425,7.2076103 99.0050931,6.62108007 98.7297942,6.13668197 C98.4544953,5.65228387 98.1001212,5.28169014 97.6666719,5.02490079 C97.2332226,4.76811143 96.7704862,4.63971675 96.2784627,4.63971675 C95.7864391,4.63971675 95.320774,4.76519337 94.8814673,5.0161466 C94.4421605,5.26709984 94.081929,5.6347755 93.8007727,6.11917361 C93.5196164,6.60357171 93.3790382,7.19593806 93.3790382,7.89627266 C93.3790382,8.58493502 93.5166877,9.17146526 93.7919866,9.65586336 C94.0672855,10.1402615 94.427517,10.5050191 94.8726811,10.7501362 C95.3178453,10.9952533 95.7864391,11.1178118 96.2784627,11.1178118 Z" id="o"></path>
                <path d="M102.340896,3.50167302 L103.746677,3.50167302 L103.746677,12.2558556 L102.340896,12.2558556 L102.340896,3.50167302 Z M106.55824,4.8148004 C105.960783,4.8148004 105.459973,4.96362151 105.055811,5.26126371 C104.651649,5.55890592 104.335348,5.92074547 104.106909,6.34678235 C103.878469,6.77281924 103.729105,7.18426582 103.658816,7.58112209 L103.641243,6.56563692 C103.641243,6.46058672 103.664673,6.28550307 103.711533,6.04038596 C103.758392,5.79526885 103.846253,5.51805307 103.975117,5.20873862 C104.10398,4.89942417 104.276774,4.60178196 104.493498,4.315812 C104.710223,4.02984204 104.988451,3.79347911 105.328181,3.60672321 C105.667912,3.41996732 106.077931,3.32658937 106.55824,3.32658937 L106.55824,4.8148004 Z" id="r"></path>
                <path d="M114.360328,9.43700879 L115.678248,9.43700879 C115.584529,10.0089487 115.376591,10.5196094 115.054432,10.9689907 C114.732274,11.4183721 114.31054,11.7743755 113.789229,12.037001 C113.267918,12.2996265 112.667532,12.4309392 111.988071,12.4309392 C111.168032,12.4309392 110.429997,12.2354291 109.773965,11.844409 C109.117934,11.4533888 108.599552,10.9164656 108.21882,10.2336394 C107.838087,9.55081317 107.647721,8.77169092 107.647721,7.89627266 C107.647721,7.02085441 107.83223,6.2388141 108.201247,5.55015174 C108.570265,4.86148938 109.076932,4.31873006 109.721249,3.92187378 C110.365565,3.52501751 111.091886,3.32658937 111.90021,3.32658937 C112.755394,3.32658937 113.478785,3.51626333 114.070385,3.89561124 C114.661985,4.27495915 115.101292,4.82939071 115.388305,5.55890592 C115.675319,6.28842113 115.789539,7.18426582 115.730965,8.24643997 L109.053502,8.24643997 C109.112077,8.81837989 109.270227,9.32028636 109.527954,9.75215937 C109.78568,10.1840324 110.125411,10.5196094 110.547145,10.7588904 C110.96888,10.9981713 111.449188,11.1178118 111.988071,11.1178118 C112.585528,11.1178118 113.092196,10.9631546 113.508073,10.6538402 C113.92395,10.3445257 114.208035,9.93891526 114.360328,9.43700879 Z M111.952927,4.63971675 C111.226606,4.63971675 110.617434,4.84981713 110.125411,5.2700179 C109.633387,5.69021866 109.305372,6.26215859 109.141364,6.98583768 L114.290039,6.98583768 C114.243179,6.21546961 113.994239,5.63185744 113.543217,5.23500117 C113.092196,4.83814489 112.562099,4.63971675 111.952927,4.63971675 Z" id="e"></path>
            </g>
            <g id="thrif">
                <path d="M0,10.6444193 L24.3366969,10.6444193 L24.3366969,16.8571154 L0,16.8571154 L0,10.6444193 Z M7.2016756,4.43172321 L17.1350213,4.43172321 L17.1350213,30.9392265 L7.2016756,30.9392265 L7.2016756,4.43172321 Z" id="t"></path>
                <path d="M55.0886795,30.9392265 L55.0886795,23.4011553 C55.0886795,22.158616 54.8403458,21.1093607 54.3436786,20.2533892 C53.8470113,19.3974178 52.9709454,18.7554392 51.7154808,18.3274535 C50.4600163,17.8994677 48.6871901,17.6854749 46.397002,17.6854749 C45.1001486,17.6854749 43.8377859,17.8028258 42.609914,18.0375276 C41.3820421,18.2722295 40.278337,18.5552523 39.2987988,18.8865961 C38.3192605,19.2179399 37.5397688,19.5492837 36.9603236,19.8806275 L36.8775458,17.8925647 C36.9879163,17.478385 37.3673149,16.8502124 38.0157416,16.0080469 C38.6641684,15.1658815 39.6092158,14.282298 40.850884,13.3572966 C42.0925522,12.4322952 43.6584338,11.6453537 45.5485287,10.9964721 C47.4386237,10.3475905 49.6805246,10.0231497 52.2742315,10.0231497 C53.9021965,10.0231497 55.4749763,10.1750156 56.9925707,10.4787474 C58.5101652,10.7824792 59.8691021,11.2863979 61.0693813,11.9905035 C62.2696606,12.694609 63.2285044,13.6403194 63.9459127,14.8276347 C64.663321,16.0149499 65.0220251,17.492191 65.0220251,19.2593579 L65.0220251,30.9392265 L55.0886795,30.9392265 Z M27.4408674,30.9392265 L27.4408674,2.36082451 L37.374213,2.36082451 L37.374213,30.9392265 L27.4408674,30.9392265 Z" id="h"></path>
                <path d="M68.7470298,10.6444193 L78.6803754,10.6444193 L78.6803754,30.9392265 L68.7470298,30.9392265 L68.7470298,10.6444193 Z M89.358722,18.3067445 C87.5652013,18.3067445 85.92344,18.4724164 84.4334381,18.8037602 C82.9434363,19.135104 81.6741754,19.5285747 80.6256556,19.9841724 C79.5771358,20.4397701 78.7907459,20.8884648 78.266486,21.3302566 L78.1837081,19.3421938 C78.266486,18.7623422 78.487227,18.0789456 78.8459312,17.2920041 C79.2046353,16.5050626 79.6875063,15.6905091 80.2945441,14.8483437 C80.9015819,14.0061782 81.6465828,13.2192367 82.5295469,12.4875191 C83.4125109,11.7558016 84.42654,11.162144 85.571634,10.7065463 C86.716728,10.2509485 87.9790907,10.0231497 89.358722,10.0231497 L89.358722,18.3067445 Z" id="r"></path>
                <path d="M102.975683,0 L102.975683,6.21269609 L92.4628925,6.21269609 L92.4628925,0 L102.975683,0 Z M92.7526151,10.6444193 L102.685961,10.6444193 L102.685961,30.9392265 L92.7526151,30.9392265 L92.7526151,10.6444193 Z" id="i"></path>
                <path d="M106.079854,11.8869585 L132.320442,11.8869585 L132.320442,18.0996546 L106.079854,18.0996546 L106.079854,11.8869585 Z M122.759597,2.36082451 L132.320442,2.36082451 L132.320442,8.98770034 L126.898491,8.98770034 C125.794786,8.96008836 124.946312,9.01531232 124.353071,9.15337224 C123.75983,9.29143215 123.34594,9.56755198 123.111403,9.98173172 C122.876865,10.3959115 122.759597,11.0309871 122.759597,11.8869585 L122.759597,30.9392265 L112.826251,30.9392265 L112.826251,9.81605982 C112.826251,8.15934086 113.136668,6.77874173 113.757502,5.67426243 C114.378336,4.56978312 115.41306,3.74142364 116.861673,3.18918399 C118.310286,2.63694434 120.27626,2.36082451 122.759597,2.36082451 Z" id="f"></path>
            </g>
        </g>
    </g>
</svg>