<?xml version="1.0" encoding="UTF-8"?>
<svg width="19px" height="21px" viewBox="0 0 19 21" version="1.1" xmlns="http://www.w3.org/2000/svg" xmlns:xlink="http://www.w3.org/1999/xlink">
    <title>Twitch_logo</title>
    <g id="Page-1" stroke="none" stroke-width="1" fill="none" fill-rule="evenodd">
        <g id="g3363" fill="#000000" transform="translate(9.020527, 10.917042) scale(-1, 1) rotate(-180.000000) translate(-9.020527, -10.917042) translate(0.020527, 0.917042)">
            <path d="M15.7238228,9.28303793 L12.901704,6.46112585 L8.46862919,6.46112585 L6.05023132,4.04314142 L6.05023132,6.46112585 L2.42273787,6.46112585 L2.42273787,18.1498077 L15.7238228,18.1498077 L15.7238228,9.28303793 Z M0.809921375,19.7620041 L0.00392656321,16.5374047 L0.00392656321,2.02784431 L3.63183345,2.02784431 L3.63183345,0.0121337658 L5.6465104,0.0121337658 L7.66242766,2.02784431 L10.8864069,2.02784431 L17.3351923,8.4758028 L17.3351923,19.7620041 L0.809921375,19.7620041 Z" id="path3367"></path>
            <path d="M6.85622613,10.0884746 L8.46842248,10.0884746 L8.46842248,14.9258905 L6.85622613,14.9258905 L6.85622613,10.0884746 Z M11.2895077,10.0884746 L12.901704,10.0884746 L12.901704,14.9258905 L11.2895077,14.9258905 L11.2895077,10.0884746 Z" id="path3369"></path>
        </g>
    </g>
</svg>