<svg xmlns="http://www.w3.org/2000/svg" width="24" height="24" viewBox="0 0 24 24"><path fill="#212121" d="M8.32685576,23.9049082 L10.7765941,21.4554211 L14.6943667,21.4554211 L22.5309169,13.6198758 L22.5309169,-0.0950917658 L2.44944316,-0.0950917658 L1.47,3.8234345 L1.47,21.4554211 L5.87862465,21.4554211 L5.87862465,23.9049082 L8.32685576,23.9049082 Z M8.81745655,19.0064364 L8.81745655,16.0681069 L4.4093343,16.0681069 L4.4093343,1.86404584 L20.5727841,1.86404584 L20.5727841,12.6389254 L17.1433514,16.0681069 L11.7562884,16.0681069 L8.81745655,19.0064364 Z M11.7560373,11.6601605 L11.7560373,5.78174309 L9.79689971,5.78174309 L9.79689971,11.6601605 L11.7560373,11.6601605 Z M17.1433514,11.6601605 L17.1433514,5.78174309 L15.184214,5.78174309 L15.184214,11.6601605 L17.1433514,11.6601605 Z"></path></svg>